<svg width="40" height="40" viewBox="0 0 40 40" fill="none" xmlns="http://www.w3.org/2000/svg">
<path fill-rule="evenodd" clip-rule="evenodd" d="M32.9082 7.50825C33.3172 7.33611 33.7649 7.27674 34.2046 7.33632C34.6443 7.3959 35.06 7.57225 35.4085 7.84701C35.7569 8.12177 36.0253 8.4849 36.1858 8.89861C36.3463 9.31231 36.3929 9.76147 36.3209 10.1993L32.5673 32.9675C32.2032 35.1637 29.7935 36.4232 27.7793 35.3292C26.0945 34.414 23.5921 33.0039 21.3413 31.5326C20.2159 30.7961 16.7684 28.4377 17.1921 26.7595C17.5562 25.3246 23.3488 19.9325 26.6589 16.7267C27.9581 15.4673 27.3656 14.7407 25.8314 15.8992C22.0215 18.7757 15.9045 23.1499 13.8821 24.3812C12.098 25.4669 11.1678 25.6523 10.0557 25.4669C8.0266 25.1293 6.14483 24.6063 4.60897 23.9691C2.53357 23.1085 2.63453 20.2552 4.60732 19.4244L32.9082 7.50825Z" fill="url(#paint0_linear_603_25691)"/>
<defs>
<linearGradient id="paint0_linear_603_25691" x1="19.7218" y1="7.31384" x2="19.7218" y2="35.7306" gradientUnits="userSpaceOnUse">
<stop stop-color="#18C4E9"/>
<stop offset="0.515" stop-color="#CF6ACD"/>
<stop offset="1" stop-color="#F5505D"/>
</linearGradient>
</defs>
</svg>
