<svg width="47.000000" height="47.000000" viewBox="0 0 47 47" fill="none" xmlns="http://www.w3.org/2000/svg" xmlns:xlink="http://www.w3.org/1999/xlink">
	<desc>
			Created with Pixso.
	</desc>
	<defs>
		<linearGradient id="paint_linear_603_9752_0" x1="8.000000" y1="23.000488" x2="38.000977" y2="23.000488" gradientUnits="userSpaceOnUse">
			<stop stop-color="#FC00FF"/>
			<stop offset="1.000000" stop-color="#00DBDE"/>
		</linearGradient>
	</defs>
	<rect id="Rectangle 4329" rx="10.000000" width="47.000000" height="47.000000" fill="#252231" fill-opacity="1.000000"/>
	<path id="Vector" d="M15.2661 20.9351C15.3931 20.9351 15.5347 20.9546 15.6909 20.9937C15.8472 21.0327 16.0034 21.0864 16.1597 21.1548C16.3159 21.2231 16.4722 21.2866 16.6284 21.3452C16.7847 21.4038 16.9263 21.4624 17.0532 21.521L16.8188 21.5503C16.7407 21.5601 16.6577 21.5649 16.5698 21.5649C16.4038 21.5649 16.2524 21.5405 16.1157 21.4917C15.979 21.4429 15.8521 21.3794 15.7349 21.3013C15.6177 21.2231 15.5005 21.1646 15.3833 21.1255C15.2661 21.0864 15.1587 21.0571 15.061 21.0376C14.9634 21.0376 14.8755 21.0571 14.7974 21.0962C14.7192 21.1353 14.6411 21.1792 14.563 21.228C14.563 21.189 14.5288 21.1694 14.4604 21.1694C14.5288 21.1011 14.6558 21.0474 14.8413 21.0083C15.0269 20.9692 15.1685 20.9448 15.2661 20.9351ZM17.2437 21.5942C17.644 21.5942 18.0103 21.6626 18.3423 21.7993C18.2056 21.8481 18.0688 21.8872 17.9321 21.9165C17.7954 21.9458 17.6538 21.9653 17.5073 21.9751C17.312 21.9751 17.1362 21.9556 16.98 21.9165C17.0288 21.8384 17.0776 21.7896 17.1265 21.77C17.1753 21.7505 17.2144 21.6919 17.2437 21.5942ZM23.0005 8.00049C24.3774 8.00049 25.7007 8.18115 26.9702 8.54248C28.2397 8.90381 29.4312 9.40674 30.5444 10.0513C31.6577 10.6958 32.6733 11.4819 33.5913 12.4097C34.5093 13.3374 35.2905 14.3481 35.9351 15.4419C36.5796 16.5356 37.0874 17.7271 37.4585 19.0161C37.8296 20.3052 38.0103 21.6333 38.0005 23.0005C38.0005 24.3774 37.8198 25.7007 37.4585 26.9702C37.0972 28.2397 36.5942 29.4312 35.9497 30.5444C35.3052 31.6577 34.519 32.6733 33.5913 33.5913C32.6636 34.5093 31.6528 35.2905 30.5591 35.9351C29.4653 36.5796 28.2739 37.0874 26.9849 37.4585C25.6958 37.8296 24.3677 38.0103 23.0005 38.0005C21.6235 38.0005 20.3003 37.8198 19.0308 37.4585C17.7612 37.0972 16.5698 36.5942 15.4565 35.9497C14.3433 35.3052 13.3276 34.519 12.4097 33.5913C11.4917 32.6636 10.7104 31.6528 10.0659 30.5591C9.42139 29.4653 8.91357 28.2739 8.54248 26.9849C8.17139 25.6958 7.99072 24.3677 8.00049 23.0005C8.00049 21.6235 8.18115 20.3003 8.54248 19.0308C8.90381 17.7612 9.40674 16.5698 10.0513 15.4565C10.6958 14.3433 11.4819 13.3276 12.4097 12.4097C13.3374 11.4917 14.3481 10.7104 15.4419 10.0659C16.5356 9.42139 17.7271 8.91357 19.0161 8.54248C20.3052 8.17139 21.6333 7.99072 23.0005 8.00049ZM34.1626 16.1304C34.0259 15.9155 33.8892 15.7104 33.7524 15.5151C33.6157 15.3198 33.4741 15.1196 33.3276 14.9146C33.3081 15.0024 33.2837 15.0659 33.2544 15.105C33.2251 15.144 33.2056 15.2319 33.1958 15.3687C33.1958 15.4565 33.23 15.5396 33.2983 15.6177C33.3667 15.6958 33.4546 15.7739 33.562 15.8521C33.6694 15.9302 33.7769 15.9888 33.8843 16.0278C33.9917 16.0669 34.0845 16.1011 34.1626 16.1304ZM33.1519 14.6948C33.1519 14.7729 33.1372 14.8267 33.1079 14.856L33.1958 14.856C33.2349 14.856 33.2642 14.8608 33.2837 14.8706L33.1519 14.6948ZM23.0005 36.1255C24.1138 36.1255 25.2026 35.9839 26.2671 35.7007C27.3315 35.4175 28.3374 35.0171 29.2847 34.4995C30.2319 33.9819 31.1108 33.3472 31.9214 32.5952C32.7319 31.8433 33.4399 31.0034 34.0454 30.0757C33.9185 29.7827 33.7964 29.4849 33.6792 29.1821C33.562 28.8794 33.5034 28.5669 33.5034 28.2446C33.5034 27.8931 33.5181 27.6099 33.5474 27.395C33.5767 27.1802 33.6108 26.9897 33.6499 26.8237C33.689 26.6577 33.7085 26.5161 33.7085 26.3989C33.7085 26.2817 33.6938 26.1304 33.6646 25.9448C33.6353 25.7593 33.5522 25.5591 33.4155 25.3442C33.2788 25.1294 33.0981 24.8267 32.8735 24.436C32.8833 24.3677 32.8979 24.2749 32.9175 24.1577C32.937 24.0405 32.9565 23.9185 32.9761 23.7915C32.9956 23.6646 33.0005 23.5474 32.9907 23.4399C32.981 23.3325 32.9565 23.2397 32.9175 23.1616C32.6636 23.1323 32.3999 23.0786 32.1265 23.0005C31.853 22.9224 31.6089 22.8052 31.394 22.6489L31.4819 22.5757C31.355 22.605 31.228 22.644 31.1011 22.6929C30.9741 22.7417 30.8521 22.7954 30.7349 22.854C30.6177 22.9126 30.4907 22.9517 30.354 22.9712C30.2173 22.9907 30.0854 23.0103 29.9585 23.0298L29.7241 23.0005L29.7681 22.8979C29.6313 22.937 29.4849 22.9858 29.3286 23.0444C29.1724 23.103 29.021 23.1323 28.8745 23.1323C28.7769 23.1323 28.6353 23.0981 28.4497 23.0298C28.2642 22.9614 28.0786 22.8784 27.8931 22.7808C27.7075 22.6831 27.5415 22.5757 27.395 22.4585C27.2485 22.3413 27.1753 22.229 27.1753 22.1216L27.2046 22.0776C27.1558 22.019 27.0923 21.9653 27.0142 21.9165C26.936 21.8677 26.8628 21.8188 26.7944 21.77C26.7261 21.7212 26.6626 21.6675 26.604 21.6089C26.5454 21.5503 26.521 21.4819 26.5308 21.4038L26.6919 21.272L26.355 21.228L26.2378 20.7886C26.2573 20.8374 26.3013 20.8569 26.3696 20.8472C26.438 20.8374 26.4917 20.8179 26.5308 20.7886L26.0034 20.5103L26.3696 19.5728C26.2329 19.0649 26.1987 18.6743 26.2671 18.4009C26.3354 18.1274 26.4673 17.9028 26.6626 17.7271C26.8579 17.5513 27.0728 17.3755 27.3071 17.1997C27.5415 17.0239 27.7808 16.7847 28.0249 16.4819L27.981 16.3062L28.9478 15.1343L29.1675 15.105C29.4409 15.105 29.7485 15.0952 30.0903 15.0757C30.4321 15.0562 30.7788 15.022 31.1304 14.9731C31.4819 14.9243 31.8286 14.8755 32.1704 14.8267C32.5122 14.7778 32.8247 14.7144 33.1079 14.6362C32.7954 14.2651 32.4683 13.9136 32.1265 13.5815C31.7847 13.2495 31.4185 12.9321 31.0278 12.6294C30.9204 12.6685 30.7886 12.7222 30.6323 12.7905C30.4761 12.8589 30.3198 12.9468 30.1636 13.0542C30.0073 13.1616 29.8853 13.2788 29.7974 13.4058C29.7095 13.5327 29.6558 13.6646 29.6362 13.8013L29.7241 14.0796C29.5483 14.3628 29.353 14.5386 29.1382 14.6069C28.9233 14.6753 28.7036 14.7144 28.479 14.7241C28.2544 14.7339 28.02 14.7339 27.7759 14.7241C27.5317 14.7144 27.2974 14.7583 27.0728 14.856L26.8384 14.3579L27.0581 13.5083L26.8091 13.1421L29.3433 12.3511C29.2358 12.0776 29.0601 11.8726 28.8159 11.7358C28.5718 11.5991 28.3032 11.5308 28.0103 11.5308L28.0103 11.3843L28.8306 11.2524C27.9224 10.8032 26.98 10.4614 26.0034 10.2271C25.0269 9.99268 24.0259 9.87549 23.0005 9.87549C22.1509 9.87549 21.311 9.9585 20.481 10.1245C19.6509 10.2905 18.8501 10.5298 18.0786 10.8423C17.3071 11.1548 16.5601 11.5454 15.8374 12.0142C15.1147 12.4829 14.4556 13.0103 13.8599 13.5962C14.1138 13.5962 14.3091 13.6597 14.4458 13.7866C14.5825 13.9136 14.7095 14.0552 14.8267 14.2114C14.9438 14.3677 15.0659 14.5093 15.1929 14.6362C15.3198 14.7632 15.4907 14.8315 15.7056 14.8413L15.9399 14.6655L15.9106 14.3433L16.394 13.6548L16.0132 12.5708C16.062 12.5415 16.1353 12.4927 16.2329 12.4243C16.3306 12.356 16.4136 12.3218 16.4819 12.3218C16.7749 12.3218 16.9995 12.3364 17.1558 12.3657C17.312 12.395 17.4487 12.4487 17.5659 12.5269C17.6831 12.605 17.7856 12.7173 17.8735 12.8638C17.9614 13.0103 18.0981 13.1958 18.2837 13.4204L18.811 13.0103C18.9087 13.0493 19.0649 13.1128 19.2798 13.2007C19.4946 13.2886 19.7144 13.396 19.939 13.5229C20.1636 13.6499 20.354 13.7817 20.5103 13.9185C20.6665 14.0552 20.7495 14.1821 20.7593 14.2993C20.7593 14.4458 20.7056 14.563 20.5981 14.6509C20.4907 14.7388 20.3491 14.812 20.1733 14.8706C19.9976 14.9292 19.8169 14.9731 19.6313 15.0024C19.4458 15.0317 19.2603 15.0708 19.0747 15.1196C18.8892 15.1685 18.7476 15.2173 18.6499 15.2661C18.5522 15.3149 18.4937 15.3979 18.4741 15.5151L19.3237 15.7935C19.1284 15.9595 18.9185 16.1108 18.6938 16.2476C18.4692 16.3843 18.2349 16.5112 17.9907 16.6284L18.0493 16.8774L16.7017 17.4048L16.7017 17.8149L16.5991 17.8589L16.6724 17.3462L16.6138 17.3315C16.5454 17.3315 16.5063 17.3462 16.4966 17.3755C16.4868 17.4048 16.4819 17.439 16.4819 17.478C16.4819 17.5171 16.4917 17.5562 16.5112 17.5952C16.5308 17.6343 16.5356 17.6636 16.5259 17.6831L16.3354 17.5806L16.3647 17.6392C16.3647 17.6685 16.3794 17.7124 16.4087 17.771C16.438 17.8296 16.4771 17.8833 16.5259 17.9321C16.5747 17.981 16.6138 18.0298 16.6431 18.0786C16.6724 18.1274 16.6919 18.1519 16.7017 18.1519C16.7017 18.1812 16.6821 18.2104 16.6431 18.2397C16.604 18.269 16.5552 18.2886 16.4966 18.2983C16.438 18.3081 16.3989 18.3228 16.3794 18.3423C16.3599 18.3618 16.3599 18.3667 16.3794 18.3569C16.5161 18.3569 16.5454 18.3667 16.4673 18.3862C16.3892 18.4058 16.2671 18.4546 16.1011 18.5327C15.9351 18.6108 15.7837 18.7231 15.647 18.8696C15.5103 19.0161 15.4321 19.231 15.4126 19.5142C15.4126 19.6802 15.4175 19.8413 15.4272 19.9976C15.437 20.1538 15.4321 20.3149 15.4126 20.481C15.2759 20.1099 15.0708 19.8267 14.7974 19.6313C14.5239 19.436 14.1919 19.3384 13.8013 19.3384L13.1714 19.397L13.479 19.6021C13.313 19.5825 13.1421 19.563 12.9663 19.5435C12.7905 19.5239 12.6099 19.519 12.4243 19.5288C12.2388 19.5386 12.0728 19.5776 11.9263 19.646C11.7798 19.7144 11.6333 19.8169 11.4868 19.9536L11.3989 20.6128C11.3989 20.9253 11.4673 21.1792 11.604 21.3745C11.7407 21.5698 11.98 21.6724 12.3218 21.6821C12.6147 21.6821 12.9028 21.6382 13.186 21.5503C13.4692 21.4624 13.7476 21.3599 14.021 21.2427C13.9331 21.4575 13.8354 21.6626 13.728 21.8579C13.6206 22.0532 13.5425 22.2681 13.4937 22.5024L13.6841 22.5903C13.9185 22.4341 14.1333 22.4097 14.3286 22.5171C14.5239 22.6245 14.7144 22.7808 14.8999 22.9858C15.0854 23.1909 15.2759 23.4009 15.4712 23.6157C15.6665 23.8306 15.8765 23.9868 16.1011 24.0845L15.603 24.3481L14.4312 23.689C14.4409 23.7085 14.4507 23.7524 14.4604 23.8208C14.4702 23.8892 14.4653 23.9038 14.4458 23.8647L13.9185 22.9712C13.606 22.9614 13.2739 22.9126 12.9224 22.8247C12.5708 22.7368 12.2144 22.6196 11.853 22.4731C11.4917 22.3267 11.1548 22.1655 10.8423 21.9897C10.5298 21.814 10.2417 21.6284 9.97803 21.4331L9.87549 23.0005C9.87549 24.1919 10.0366 25.354 10.3589 26.4868C10.6812 27.6196 11.1353 28.6841 11.7212 29.6802C12.3071 30.6763 13.0249 31.5845 13.8745 32.4048C14.7241 33.2251 15.6665 33.9233 16.7017 34.4995C16.6528 34.2944 16.6479 34.0894 16.687 33.8843C16.7261 33.6792 16.7749 33.4741 16.8335 33.269C16.8921 33.064 16.9556 32.8589 17.0239 32.6538C17.0923 32.4487 17.1265 32.2388 17.1265 32.0239C17.1265 31.7114 17.0776 31.3843 16.98 31.0425C16.8823 30.7007 16.7651 30.354 16.6284 30.0024C16.4917 29.6509 16.3403 29.3042 16.1743 28.9624C16.0083 28.6206 15.8765 28.2983 15.7788 27.9956C15.6812 27.6929 15.603 27.4097 15.5444 27.146C15.4858 26.8823 15.5151 26.6528 15.6323 26.4575L15.4126 26.355C15.4712 26.2183 15.5493 26.0864 15.647 25.9595C15.7446 25.8325 15.8472 25.7056 15.9546 25.5786C16.062 25.4517 16.145 25.3149 16.2036 25.1685C16.2622 25.022 16.2964 24.8755 16.3062 24.729C16.3062 24.6313 16.2866 24.5288 16.2476 24.4214C16.2085 24.314 16.1743 24.2114 16.145 24.1138L16.4526 24.187C16.6187 23.8062 16.8433 23.5474 17.1265 23.4106C17.4097 23.2739 17.7661 23.2007 18.1958 23.1909C18.2446 23.1909 18.3472 23.2104 18.5034 23.2495C18.6597 23.2886 18.8257 23.3423 19.0015 23.4106C19.1772 23.479 19.3433 23.5327 19.4995 23.5718C19.6558 23.6108 19.7729 23.6499 19.8511 23.689C19.8511 23.7573 19.8901 23.8013 19.9683 23.8208C20.0464 23.8403 20.0903 23.8745 20.1001 23.9233L20.0708 24.0405C20.1001 24.0503 20.1685 24.0845 20.2759 24.1431C20.3833 24.2017 20.5005 24.2749 20.6274 24.3628C20.7544 24.4507 20.8667 24.5288 20.9644 24.5972C21.062 24.6655 21.1304 24.7192 21.1694 24.7583C21.3452 24.7583 21.5845 24.8169 21.8872 24.9341C22.1899 25.0513 22.522 25.1978 22.8833 25.3735C23.2446 25.5493 23.6011 25.7593 23.9526 26.0034C24.3042 26.2476 24.6362 26.4917 24.9487 26.7358C25.2612 26.98 25.5005 27.2241 25.6665 27.4683C25.8325 27.7124 25.9302 27.9272 25.9595 28.1128L25.4614 28.6401C25.5005 29.1382 25.4663 29.519 25.3589 29.7827C25.2515 30.0464 25.0854 30.2661 24.8608 30.4419C24.6362 30.6177 24.3774 30.7642 24.0845 30.8813C23.7915 30.9985 23.4741 31.1646 23.1323 31.3794C23.1323 31.5747 23.0835 31.7847 22.9858 32.0093C22.8882 32.2339 22.7661 32.4487 22.6196 32.6538C22.4731 32.8589 22.2974 33.0298 22.0923 33.1665C21.8872 33.3032 21.6821 33.3716 21.4771 33.3716L20.8618 32.9028C20.8813 32.9224 20.8813 32.9565 20.8618 33.0054C20.8423 33.0542 20.8179 33.064 20.7886 33.0347C20.8862 33.2202 20.9106 33.4351 20.8618 33.6792C20.813 33.9233 20.73 34.1724 20.6128 34.4263C20.4956 34.6802 20.3638 34.9194 20.2173 35.144C20.0708 35.3687 19.939 35.5591 19.8218 35.7153C20.3491 35.8521 20.8765 35.9546 21.4038 36.0229C21.9312 36.0913 22.4634 36.1255 23.0005 36.1255Z" fill="#000000" fill-opacity="1.000000" fill-rule="nonzero"/>
	<path id="Vector" d="M15.2661 20.9351C15.3931 20.9351 15.5347 20.9546 15.6909 20.9937C15.8472 21.0327 16.0034 21.0864 16.1597 21.1548C16.3159 21.2231 16.4722 21.2866 16.6284 21.3452C16.7847 21.4038 16.9263 21.4624 17.0532 21.521L16.8188 21.5503C16.7407 21.5601 16.6577 21.5649 16.5698 21.5649C16.4038 21.5649 16.2524 21.5405 16.1157 21.4917C15.979 21.4429 15.8521 21.3794 15.7349 21.3013C15.6177 21.2231 15.5005 21.1646 15.3833 21.1255C15.2661 21.0864 15.1587 21.0571 15.061 21.0376C14.9634 21.0376 14.8755 21.0571 14.7974 21.0962C14.7192 21.1353 14.6411 21.1792 14.563 21.228C14.563 21.189 14.5288 21.1694 14.4604 21.1694C14.5288 21.1011 14.6558 21.0474 14.8413 21.0083C15.0269 20.9692 15.1685 20.9448 15.2661 20.9351ZM17.2437 21.5942C17.644 21.5942 18.0103 21.6626 18.3423 21.7993C18.2056 21.8481 18.0688 21.8872 17.9321 21.9165C17.7954 21.9458 17.6538 21.9653 17.5073 21.9751C17.312 21.9751 17.1362 21.9556 16.98 21.9165C17.0288 21.8384 17.0776 21.7896 17.1265 21.77C17.1753 21.7505 17.2144 21.6919 17.2437 21.5942ZM23.0005 8.00049C24.3774 8.00049 25.7007 8.18115 26.9702 8.54248C28.2397 8.90381 29.4312 9.40674 30.5444 10.0513C31.6577 10.6958 32.6733 11.4819 33.5913 12.4097C34.5093 13.3374 35.2905 14.3481 35.9351 15.4419C36.5796 16.5356 37.0874 17.7271 37.4585 19.0161C37.8296 20.3052 38.0103 21.6333 38.0005 23.0005C38.0005 24.3774 37.8198 25.7007 37.4585 26.9702C37.0972 28.2397 36.5942 29.4312 35.9497 30.5444C35.3052 31.6577 34.519 32.6733 33.5913 33.5913C32.6636 34.5093 31.6528 35.2905 30.5591 35.9351C29.4653 36.5796 28.2739 37.0874 26.9849 37.4585C25.6958 37.8296 24.3677 38.0103 23.0005 38.0005C21.6235 38.0005 20.3003 37.8198 19.0308 37.4585C17.7612 37.0972 16.5698 36.5942 15.4565 35.9497C14.3433 35.3052 13.3276 34.519 12.4097 33.5913C11.4917 32.6636 10.7104 31.6528 10.0659 30.5591C9.42139 29.4653 8.91357 28.2739 8.54248 26.9849C8.17139 25.6958 7.99072 24.3677 8.00049 23.0005C8.00049 21.6235 8.18115 20.3003 8.54248 19.0308C8.90381 17.7612 9.40674 16.5698 10.0513 15.4565C10.6958 14.3433 11.4819 13.3276 12.4097 12.4097C13.3374 11.4917 14.3481 10.7104 15.4419 10.0659C16.5356 9.42139 17.7271 8.91357 19.0161 8.54248C20.3052 8.17139 21.6333 7.99072 23.0005 8.00049ZM34.1626 16.1304C34.0259 15.9155 33.8892 15.7104 33.7524 15.5151C33.6157 15.3198 33.4741 15.1196 33.3276 14.9146C33.3081 15.0024 33.2837 15.0659 33.2544 15.105C33.2251 15.144 33.2056 15.2319 33.1958 15.3687C33.1958 15.4565 33.23 15.5396 33.2983 15.6177C33.3667 15.6958 33.4546 15.7739 33.562 15.8521C33.6694 15.9302 33.7769 15.9888 33.8843 16.0278C33.9917 16.0669 34.0845 16.1011 34.1626 16.1304ZM33.1519 14.6948C33.1519 14.7729 33.1372 14.8267 33.1079 14.856L33.1958 14.856C33.2349 14.856 33.2642 14.8608 33.2837 14.8706L33.1519 14.6948ZM23.0005 36.1255C24.1138 36.1255 25.2026 35.9839 26.2671 35.7007C27.3315 35.4175 28.3374 35.0171 29.2847 34.4995C30.2319 33.9819 31.1108 33.3472 31.9214 32.5952C32.7319 31.8433 33.4399 31.0034 34.0454 30.0757C33.9185 29.7827 33.7964 29.4849 33.6792 29.1821C33.562 28.8794 33.5034 28.5669 33.5034 28.2446C33.5034 27.8931 33.5181 27.6099 33.5474 27.395C33.5767 27.1802 33.6108 26.9897 33.6499 26.8237C33.689 26.6577 33.7085 26.5161 33.7085 26.3989C33.7085 26.2817 33.6938 26.1304 33.6646 25.9448C33.6353 25.7593 33.5522 25.5591 33.4155 25.3442C33.2788 25.1294 33.0981 24.8267 32.8735 24.436C32.8833 24.3677 32.8979 24.2749 32.9175 24.1577C32.937 24.0405 32.9565 23.9185 32.9761 23.7915C32.9956 23.6646 33.0005 23.5474 32.9907 23.4399C32.981 23.3325 32.9565 23.2397 32.9175 23.1616C32.6636 23.1323 32.3999 23.0786 32.1265 23.0005C31.853 22.9224 31.6089 22.8052 31.394 22.6489L31.4819 22.5757C31.355 22.605 31.228 22.644 31.1011 22.6929C30.9741 22.7417 30.8521 22.7954 30.7349 22.854C30.6177 22.9126 30.4907 22.9517 30.354 22.9712C30.2173 22.9907 30.0854 23.0103 29.9585 23.0298L29.7241 23.0005L29.7681 22.8979C29.6313 22.937 29.4849 22.9858 29.3286 23.0444C29.1724 23.103 29.021 23.1323 28.8745 23.1323C28.7769 23.1323 28.6353 23.0981 28.4497 23.0298C28.2642 22.9614 28.0786 22.8784 27.8931 22.7808C27.7075 22.6831 27.5415 22.5757 27.395 22.4585C27.2485 22.3413 27.1753 22.229 27.1753 22.1216L27.2046 22.0776C27.1558 22.019 27.0923 21.9653 27.0142 21.9165C26.936 21.8677 26.8628 21.8188 26.7944 21.77C26.7261 21.7212 26.6626 21.6675 26.604 21.6089C26.5454 21.5503 26.521 21.4819 26.5308 21.4038L26.6919 21.272L26.355 21.228L26.2378 20.7886C26.2573 20.8374 26.3013 20.8569 26.3696 20.8472C26.438 20.8374 26.4917 20.8179 26.5308 20.7886L26.0034 20.5103L26.3696 19.5728C26.2329 19.0649 26.1987 18.6743 26.2671 18.4009C26.3354 18.1274 26.4673 17.9028 26.6626 17.7271C26.8579 17.5513 27.0728 17.3755 27.3071 17.1997C27.5415 17.0239 27.7808 16.7847 28.0249 16.4819L27.981 16.3062L28.9478 15.1343L29.1675 15.105C29.4409 15.105 29.7485 15.0952 30.0903 15.0757C30.4321 15.0562 30.7788 15.022 31.1304 14.9731C31.4819 14.9243 31.8286 14.8755 32.1704 14.8267C32.5122 14.7778 32.8247 14.7144 33.1079 14.6362C32.7954 14.2651 32.4683 13.9136 32.1265 13.5815C31.7847 13.2495 31.4185 12.9321 31.0278 12.6294C30.9204 12.6685 30.7886 12.7222 30.6323 12.7905C30.4761 12.8589 30.3198 12.9468 30.1636 13.0542C30.0073 13.1616 29.8853 13.2788 29.7974 13.4058C29.7095 13.5327 29.6558 13.6646 29.6362 13.8013L29.7241 14.0796C29.5483 14.3628 29.353 14.5386 29.1382 14.6069C28.9233 14.6753 28.7036 14.7144 28.479 14.7241C28.2544 14.7339 28.02 14.7339 27.7759 14.7241C27.5317 14.7144 27.2974 14.7583 27.0728 14.856L26.8384 14.3579L27.0581 13.5083L26.8091 13.1421L29.3433 12.3511C29.2358 12.0776 29.0601 11.8726 28.8159 11.7358C28.5718 11.5991 28.3032 11.5308 28.0103 11.5308L28.0103 11.3843L28.8306 11.2524C27.9224 10.8032 26.98 10.4614 26.0034 10.2271C25.0269 9.99268 24.0259 9.87549 23.0005 9.87549C22.1509 9.87549 21.311 9.9585 20.481 10.1245C19.6509 10.2905 18.8501 10.5298 18.0786 10.8423C17.3071 11.1548 16.5601 11.5454 15.8374 12.0142C15.1147 12.4829 14.4556 13.0103 13.8599 13.5962C14.1138 13.5962 14.3091 13.6597 14.4458 13.7866C14.5825 13.9136 14.7095 14.0552 14.8267 14.2114C14.9438 14.3677 15.0659 14.5093 15.1929 14.6362C15.3198 14.7632 15.4907 14.8315 15.7056 14.8413L15.9399 14.6655L15.9106 14.3433L16.394 13.6548L16.0132 12.5708C16.062 12.5415 16.1353 12.4927 16.2329 12.4243C16.3306 12.356 16.4136 12.3218 16.4819 12.3218C16.7749 12.3218 16.9995 12.3364 17.1558 12.3657C17.312 12.395 17.4487 12.4487 17.5659 12.5269C17.6831 12.605 17.7856 12.7173 17.8735 12.8638C17.9614 13.0103 18.0981 13.1958 18.2837 13.4204L18.811 13.0103C18.9087 13.0493 19.0649 13.1128 19.2798 13.2007C19.4946 13.2886 19.7144 13.396 19.939 13.5229C20.1636 13.6499 20.354 13.7817 20.5103 13.9185C20.6665 14.0552 20.7495 14.1821 20.7593 14.2993C20.7593 14.4458 20.7056 14.563 20.5981 14.6509C20.4907 14.7388 20.3491 14.812 20.1733 14.8706C19.9976 14.9292 19.8169 14.9731 19.6313 15.0024C19.4458 15.0317 19.2603 15.0708 19.0747 15.1196C18.8892 15.1685 18.7476 15.2173 18.6499 15.2661C18.5522 15.3149 18.4937 15.3979 18.4741 15.5151L19.3237 15.7935C19.1284 15.9595 18.9185 16.1108 18.6938 16.2476C18.4692 16.3843 18.2349 16.5112 17.9907 16.6284L18.0493 16.8774L16.7017 17.4048L16.7017 17.8149L16.5991 17.8589L16.6724 17.3462L16.6138 17.3315C16.5454 17.3315 16.5063 17.3462 16.4966 17.3755C16.4868 17.4048 16.4819 17.439 16.4819 17.478C16.4819 17.5171 16.4917 17.5562 16.5112 17.5952C16.5308 17.6343 16.5356 17.6636 16.5259 17.6831L16.3354 17.5806L16.3647 17.6392C16.3647 17.6685 16.3794 17.7124 16.4087 17.771C16.438 17.8296 16.4771 17.8833 16.5259 17.9321C16.5747 17.981 16.6138 18.0298 16.6431 18.0786C16.6724 18.1274 16.6919 18.1519 16.7017 18.1519C16.7017 18.1812 16.6821 18.2104 16.6431 18.2397C16.604 18.269 16.5552 18.2886 16.4966 18.2983C16.438 18.3081 16.3989 18.3228 16.3794 18.3423C16.3599 18.3618 16.3599 18.3667 16.3794 18.3569C16.5161 18.3569 16.5454 18.3667 16.4673 18.3862C16.3892 18.4058 16.2671 18.4546 16.1011 18.5327C15.9351 18.6108 15.7837 18.7231 15.647 18.8696C15.5103 19.0161 15.4321 19.231 15.4126 19.5142C15.4126 19.6802 15.4175 19.8413 15.4272 19.9976C15.437 20.1538 15.4321 20.3149 15.4126 20.481C15.2759 20.1099 15.0708 19.8267 14.7974 19.6313C14.5239 19.436 14.1919 19.3384 13.8013 19.3384L13.1714 19.397L13.479 19.6021C13.313 19.5825 13.1421 19.563 12.9663 19.5435C12.7905 19.5239 12.6099 19.519 12.4243 19.5288C12.2388 19.5386 12.0728 19.5776 11.9263 19.646C11.7798 19.7144 11.6333 19.8169 11.4868 19.9536L11.3989 20.6128C11.3989 20.9253 11.4673 21.1792 11.604 21.3745C11.7407 21.5698 11.98 21.6724 12.3218 21.6821C12.6147 21.6821 12.9028 21.6382 13.186 21.5503C13.4692 21.4624 13.7476 21.3599 14.021 21.2427C13.9331 21.4575 13.8354 21.6626 13.728 21.8579C13.6206 22.0532 13.5425 22.2681 13.4937 22.5024L13.6841 22.5903C13.9185 22.4341 14.1333 22.4097 14.3286 22.5171C14.5239 22.6245 14.7144 22.7808 14.8999 22.9858C15.0854 23.1909 15.2759 23.4009 15.4712 23.6157C15.6665 23.8306 15.8765 23.9868 16.1011 24.0845L15.603 24.3481L14.4312 23.689C14.4409 23.7085 14.4507 23.7524 14.4604 23.8208C14.4702 23.8892 14.4653 23.9038 14.4458 23.8647L13.9185 22.9712C13.606 22.9614 13.2739 22.9126 12.9224 22.8247C12.5708 22.7368 12.2144 22.6196 11.853 22.4731C11.4917 22.3267 11.1548 22.1655 10.8423 21.9897C10.5298 21.814 10.2417 21.6284 9.97803 21.4331L9.87549 23.0005C9.87549 24.1919 10.0366 25.354 10.3589 26.4868C10.6812 27.6196 11.1353 28.6841 11.7212 29.6802C12.3071 30.6763 13.0249 31.5845 13.8745 32.4048C14.7241 33.2251 15.6665 33.9233 16.7017 34.4995C16.6528 34.2944 16.6479 34.0894 16.687 33.8843C16.7261 33.6792 16.7749 33.4741 16.8335 33.269C16.8921 33.064 16.9556 32.8589 17.0239 32.6538C17.0923 32.4487 17.1265 32.2388 17.1265 32.0239C17.1265 31.7114 17.0776 31.3843 16.98 31.0425C16.8823 30.7007 16.7651 30.354 16.6284 30.0024C16.4917 29.6509 16.3403 29.3042 16.1743 28.9624C16.0083 28.6206 15.8765 28.2983 15.7788 27.9956C15.6812 27.6929 15.603 27.4097 15.5444 27.146C15.4858 26.8823 15.5151 26.6528 15.6323 26.4575L15.4126 26.355C15.4712 26.2183 15.5493 26.0864 15.647 25.9595C15.7446 25.8325 15.8472 25.7056 15.9546 25.5786C16.062 25.4517 16.145 25.3149 16.2036 25.1685C16.2622 25.022 16.2964 24.8755 16.3062 24.729C16.3062 24.6313 16.2866 24.5288 16.2476 24.4214C16.2085 24.314 16.1743 24.2114 16.145 24.1138L16.4526 24.187C16.6187 23.8062 16.8433 23.5474 17.1265 23.4106C17.4097 23.2739 17.7661 23.2007 18.1958 23.1909C18.2446 23.1909 18.3472 23.2104 18.5034 23.2495C18.6597 23.2886 18.8257 23.3423 19.0015 23.4106C19.1772 23.479 19.3433 23.5327 19.4995 23.5718C19.6558 23.6108 19.7729 23.6499 19.8511 23.689C19.8511 23.7573 19.8901 23.8013 19.9683 23.8208C20.0464 23.8403 20.0903 23.8745 20.1001 23.9233L20.0708 24.0405C20.1001 24.0503 20.1685 24.0845 20.2759 24.1431C20.3833 24.2017 20.5005 24.2749 20.6274 24.3628C20.7544 24.4507 20.8667 24.5288 20.9644 24.5972C21.062 24.6655 21.1304 24.7192 21.1694 24.7583C21.3452 24.7583 21.5845 24.8169 21.8872 24.9341C22.1899 25.0513 22.522 25.1978 22.8833 25.3735C23.2446 25.5493 23.6011 25.7593 23.9526 26.0034C24.3042 26.2476 24.6362 26.4917 24.9487 26.7358C25.2612 26.98 25.5005 27.2241 25.6665 27.4683C25.8325 27.7124 25.9302 27.9272 25.9595 28.1128L25.4614 28.6401C25.5005 29.1382 25.4663 29.519 25.3589 29.7827C25.2515 30.0464 25.0854 30.2661 24.8608 30.4419C24.6362 30.6177 24.3774 30.7642 24.0845 30.8813C23.7915 30.9985 23.4741 31.1646 23.1323 31.3794C23.1323 31.5747 23.0835 31.7847 22.9858 32.0093C22.8882 32.2339 22.7661 32.4487 22.6196 32.6538C22.4731 32.8589 22.2974 33.0298 22.0923 33.1665C21.8872 33.3032 21.6821 33.3716 21.4771 33.3716L20.8618 32.9028C20.8813 32.9224 20.8813 32.9565 20.8618 33.0054C20.8423 33.0542 20.8179 33.064 20.7886 33.0347C20.8862 33.2202 20.9106 33.4351 20.8618 33.6792C20.813 33.9233 20.73 34.1724 20.6128 34.4263C20.4956 34.6802 20.3638 34.9194 20.2173 35.144C20.0708 35.3687 19.939 35.5591 19.8218 35.7153C20.3491 35.8521 20.8765 35.9546 21.4038 36.0229C21.9312 36.0913 22.4634 36.1255 23.0005 36.1255Z" fill="url(#paint_linear_603_9752_0)" fill-opacity="1.000000" fill-rule="nonzero"/>
</svg>
