<svg width="133" height="182" viewBox="0 0 133 182" fill="none" xmlns="http://www.w3.org/2000/svg">
<path fill-rule="evenodd" clip-rule="evenodd" d="M66.5723 112.167L13.67 81.943C5.62197 92.358 0.862305 105.25 0.862305 119.208C0.862305 153.815 30.1235 181.869 66.219 181.869C66.3366 181.869 66.4546 181.869 66.5723 181.868V112.167Z" fill="#47A2F8"/>
<path fill-rule="evenodd" clip-rule="evenodd" d="M66.5693 112.167L119.472 81.943C127.52 92.358 132.279 105.25 132.279 119.207C132.279 153.815 103.018 181.869 66.9226 181.869C66.8046 181.869 66.687 181.869 66.5693 181.869V112.167Z" fill="#7EC6F9"/>
<path d="M66.5671 0.463989L20.8174 70.5899L66.5671 44.6239V0.463989Z" fill="#47A2F8"/>
<path d="M66.5693 0.463989L112.319 70.5899L66.5693 44.6239V0.463989Z" fill="#7EC6F9"/>
<path d="M66.5671 97.0867L20.8174 70.5908L66.5671 44.6248V97.0867Z" fill="#7EC6F9"/>
<path d="M66.5693 97.0867L112.319 70.5908L66.5693 44.6248V97.0867Z" fill="#D2ECFD"/>
<path d="M66.5693 112.28L119.561 81.8983L66.5693 181.876V112.28Z" fill="#D2ECFD"/>
<path d="M66.5778 112.28L13.5859 81.8983L66.5778 181.876V112.28Z" fill="#7EC6F9"/>
</svg>
