<svg width="152" height="152" viewBox="0 0 152 152" fill="none" xmlns="http://www.w3.org/2000/svg">
<circle cx="76" cy="76" r="76" fill="url(#paint0_linear_603_32455)"/>
<path d="M109.266 106.282L83.567 44.1497C82.1175 40.9374 79.9629 39.3704 77.1226 39.3704H74.8505C72.0103 39.3704 69.8556 40.9374 68.4062 44.1497L57.2216 71.2198H48.7598C46.233 71.2394 44.1763 73.2765 44.1567 75.8229V75.8817C44.1763 78.4085 46.233 80.4652 48.7598 80.4848H53.3041L42.6288 106.282C42.433 106.85 42.3154 107.437 42.3154 108.045C42.3154 109.494 42.7659 110.63 43.569 111.512C44.3721 112.393 45.5278 112.824 46.9773 112.824C47.9371 112.804 48.8577 112.511 49.6216 111.943C50.4443 111.374 51.0123 110.552 51.4629 109.612L63.2154 80.4652H71.3639C73.8907 80.4456 75.9474 78.4085 75.967 75.8621V75.7446C75.9474 73.2178 73.8907 71.1611 71.3639 71.1415H67.0154L75.9866 48.792L100.432 109.592C100.882 110.532 101.45 111.355 102.273 111.923C103.037 112.491 103.977 112.785 104.917 112.804C106.367 112.804 107.503 112.373 108.326 111.492C109.148 110.611 109.579 109.474 109.579 108.025C109.599 107.437 109.501 106.83 109.266 106.282Z" fill="white"/>
<defs>
<linearGradient id="paint0_linear_603_32455" x1="85.0885" y1="-28.2229" x2="-27.9995" y2="66.929" gradientUnits="userSpaceOnUse">
<stop stop-color="#B6509E"/>
<stop offset="1" stop-color="#2EBAC6"/>
</linearGradient>
</defs>
</svg>
