<svg width="152" height="152" viewBox="0 0 152 152" fill="none" xmlns="http://www.w3.org/2000/svg">
<path d="M76 152C117.975 152 152 117.975 152 76C152 34.0252 117.975 0 76 0C34.0252 0 0 34.0252 0 76C0 117.975 34.0252 152 76 152Z" fill="#070A0E"/>
<path fill-rule="evenodd" clip-rule="evenodd" d="M43.9039 101.483C41.6315 100.092 40.2407 97.6221 40.2407 94.9621V80.1117C40.2407 78.3485 41.6771 76.9197 43.4403 76.9273C44.0027 76.9273 44.5575 77.0793 45.0439 77.3605L78.5523 96.9001C80.5131 98.0401 81.7215 100.138 81.7215 102.41V117.793C81.7291 119.905 80.0191 121.623 77.9063 121.623C77.1995 121.623 76.5003 121.425 75.8999 121.061L43.9039 101.483ZM93.8509 73.2948C95.8117 74.4348 97.0125 76.54 97.0201 78.8048V110.026C97.0201 110.945 96.5261 111.796 95.7205 112.245L88.3865 116.372C88.2953 116.425 88.1965 116.463 88.0901 116.493V99.1576C88.0901 96.9156 86.9121 94.8332 84.9817 93.678L55.5545 76.0764V56.5064C55.5545 54.7432 56.9909 53.3144 58.7541 53.322C59.3165 53.322 59.8713 53.474 60.3577 53.7552L93.8509 73.2948ZM108.519 50.2364C110.487 51.3764 111.696 53.4816 111.696 55.754V101.354C111.688 102.289 111.171 103.148 110.351 103.596L103.397 107.35V75.6052C103.397 73.3632 102.219 71.2884 100.303 70.1332L70.2226 52.0908V33.5316C70.2226 32.9692 70.3746 32.4144 70.6482 31.928C71.5374 30.408 73.4906 29.8912 75.0106 30.7728L108.519 50.2364Z" fill="#00D395"/>
</svg>
