<svg width="152" height="152" viewBox="0 0 152 152" fill="none" xmlns="http://www.w3.org/2000/svg">
<path fill-rule="evenodd" clip-rule="evenodd" d="M76 0C117.967 0 152 34.0328 152 76C152 117.967 117.967 152 76 152C34.0328 152 0 117.967 0 76C0 34.0328 34.0328 0 76 0Z" fill="#1E1E1E"/>
<path d="M77.1402 107.768C52.8354 107.768 33.1362 100.746 33.1362 91.3369C33.1362 86.4273 38.5018 82.0041 47.0898 78.8881C53.793 83.1897 65.041 85.3937 77.7938 85.3937C90.2426 85.3937 101.247 82.7033 108.011 78.5841C116.113 81.6697 121.144 85.9713 121.144 90.7137C121.144 100.138 101.445 107.768 77.1402 107.768Z" fill="white"/>
<path d="M77.3982 83.281C58.9758 83.281 44.0342 77.505 44.0342 70.3762C44.0342 66.4242 48.6398 62.8826 55.8598 60.5266C61.0126 63.217 68.7342 64.9346 77.3982 64.9346C86.0622 64.9346 93.7838 63.217 98.9366 60.5266C106.172 62.8978 110.762 66.4242 110.762 70.3762C110.777 77.505 95.8358 83.281 77.3982 83.281Z" fill="white"/>
<path d="M77.2773 62.7911C63.0349 62.7911 51.4829 58.0183 51.4829 52.1511C51.4829 46.2839 63.0349 41.5111 77.2773 41.5111C91.5197 41.5111 103.072 46.2839 103.072 52.1511C103.072 58.0183 91.5197 62.7911 77.2773 62.7911Z" fill="white"/>
</svg>
