<svg width="155" height="155" viewBox="0 0 155 155" fill="none" xmlns="http://www.w3.org/2000/svg">
<path d="M150.156 95.6234L150.065 95.9906C139.903 135.906 99.3799 160.151 59.3637 150.173C19.2425 140.168 -5.18239 99.5161 4.82755 59.3855L4.8277 59.3849C14.8289 19.2465 55.4781 -5.17977 95.6037 4.82565L95.6039 4.82568C135.739 14.8312 160.163 55.4873 150.156 95.6234Z" fill="url(#paint0_linear_603_32471)" stroke="#FFD9EC" stroke-width="5.16667"/>
<path d="M65.2685 47.8658C64.2193 47.7159 64.1693 47.666 64.6689 47.616C65.6182 47.4661 67.8165 47.666 69.3653 48.0157C72.9625 48.8651 76.21 51.0634 79.6573 54.9104L80.5566 55.9596L81.8556 55.7597C87.4013 54.8604 93.0969 55.5599 97.8432 57.7582C99.1422 58.3577 101.191 59.5568 101.44 59.8565C101.54 59.9565 101.69 60.606 101.79 61.2555C102.14 63.6036 101.99 65.3523 101.241 66.7012C100.841 67.4507 100.841 67.6505 101.091 68.3C101.291 68.7996 101.89 69.1494 102.44 69.1494C103.639 69.1494 104.888 67.2508 105.487 64.6029L105.737 63.5537L106.187 64.0533C108.735 66.9011 110.733 70.848 111.033 73.6459L111.133 74.3953L110.683 73.7458C109.934 72.5967 109.234 71.8473 108.285 71.1978C106.586 70.0487 104.788 69.6989 100.042 69.4491C95.7449 69.1993 93.2968 68.8496 90.8986 68.0502C86.8018 66.7012 84.7034 64.9526 79.8572 58.5076C77.7088 55.6598 76.3599 54.111 75.0109 52.812C72.0632 49.9642 69.1155 48.4654 65.2685 47.8658Z" fill="#FF007A"/>
<path d="M102.491 54.211C102.591 52.3124 102.841 51.0634 103.39 49.9143C103.59 49.4646 103.79 49.0649 103.84 49.0649C103.89 49.0649 103.79 49.4147 103.64 49.8144C103.24 50.9135 103.19 52.4623 103.44 54.211C103.79 56.4592 103.94 56.759 106.338 59.2071C107.437 60.3562 108.736 61.8051 109.236 62.4046L110.085 63.5038L109.236 62.7044C108.186 61.7052 105.788 59.8066 105.239 59.5568C104.889 59.357 104.839 59.357 104.589 59.6068C104.389 59.8066 104.339 60.1064 104.339 61.5553C104.289 63.8035 103.99 65.2024 103.24 66.6513C102.841 67.4007 102.791 67.2509 103.14 66.4015C103.39 65.752 103.44 65.4523 103.44 63.3039C103.44 58.9573 102.941 57.9081 99.8929 56.1594C99.1434 55.7098 97.8444 55.0603 97.095 54.7106C96.2956 54.3608 95.6961 54.0611 95.7461 54.0611C95.846 53.9612 98.7937 54.8105 99.9428 55.3101C101.691 56.0096 101.991 56.0595 102.191 56.0096C102.341 55.8597 102.441 55.46 102.491 54.211Z" fill="#FF007A"/>
<path d="M67.3166 61.6555C65.2182 58.7577 63.8693 54.2612 64.169 50.9138L64.2689 49.8646L64.7686 49.9645C65.6679 50.1144 67.2167 50.714 67.9661 51.1636C69.9645 52.3627 70.8638 54.0114 71.7132 58.1082C71.963 59.3073 72.3127 60.7062 72.4626 61.1559C72.7124 61.9053 73.6617 63.6539 74.4611 64.7531C75.0106 65.5525 74.6609 65.9522 73.4119 65.8522C71.5133 65.6524 68.9653 63.9038 67.3166 61.6555Z" fill="#FF007A"/>
<path d="M99.9419 83.3888C90.0495 79.3919 86.5522 75.9446 86.5522 70.0991C86.5522 69.2498 86.6022 68.5503 86.6022 68.5503C86.6522 68.5503 87.0019 68.8501 87.4515 69.1998C89.45 70.7986 91.6983 71.498 97.9434 72.3973C101.591 72.9469 103.689 73.3466 105.588 73.9961C111.633 75.9945 115.38 80.0914 116.279 85.6371C116.529 87.2358 116.379 90.2835 115.979 91.8822C115.63 93.1313 114.631 95.4295 114.381 95.4794C114.331 95.4794 114.231 95.2296 114.231 94.8299C114.131 92.7316 113.082 90.7331 111.333 89.1843C109.235 87.3857 106.537 86.0368 99.9419 83.3888Z" fill="#FF007A"/>
<path d="M92.9467 85.0375C92.8467 84.2881 92.5969 83.3388 92.447 82.9391L92.1972 82.1897L92.6469 82.7393C93.2964 83.4887 93.796 84.388 94.2456 85.637C94.5954 86.5863 94.5954 86.8861 94.5954 88.4349C94.5954 89.9337 94.5454 90.2834 94.2456 91.1328C93.746 92.4817 93.1465 93.431 92.1473 94.4802C90.3487 96.3288 88.0005 97.328 84.6531 97.7776C84.0535 97.8276 82.3549 97.9775 80.856 98.0774C77.1089 98.2772 74.6109 98.6769 72.3626 99.4763C72.0628 99.5762 71.7631 99.6762 71.7131 99.6262C71.6132 99.5263 73.162 98.627 74.411 98.0274C76.1597 97.1781 77.9583 96.7284 81.9052 96.029C83.8537 95.7292 85.8521 95.3295 86.3518 95.1297C91.2979 93.5809 93.746 89.7339 92.9467 85.0375Z" fill="#FF007A"/>
<path d="M97.4941 93.0813C96.1951 90.2335 95.8953 87.5356 96.5948 84.9875C96.6947 84.7377 96.7946 84.4879 96.8945 84.4879C96.9944 84.4879 97.2942 84.6378 97.594 84.8376C98.1935 85.2373 99.4425 85.9368 102.64 87.6854C106.687 89.8837 108.985 91.5824 110.584 93.5309C111.983 95.2296 112.832 97.1781 113.232 99.5762C113.482 100.925 113.332 104.173 112.982 105.522C111.883 109.768 109.385 113.166 105.738 115.114C105.188 115.414 104.738 115.614 104.688 115.614C104.639 115.614 104.838 115.114 105.138 114.515C106.337 111.967 106.487 109.519 105.588 106.771C105.038 105.072 103.889 103.024 101.591 99.5762C98.843 95.5793 98.1935 94.5301 97.4941 93.0813Z" fill="#FF007A"/>
<path d="M60.2723 108.369C63.9695 105.272 68.5159 103.073 72.7127 102.374C74.5113 102.074 77.509 102.174 79.1577 102.624C81.8057 103.323 84.2038 104.822 85.4528 106.67C86.6519 108.469 87.2015 110.018 87.7511 113.465C87.9509 114.814 88.2007 116.213 88.2507 116.513C88.6504 118.311 89.4497 119.71 90.449 120.46C91.9978 121.609 94.6957 121.659 97.3436 120.66C97.7933 120.51 98.193 120.36 98.193 120.41C98.2929 120.51 96.9439 121.409 96.0446 121.859C94.7956 122.508 93.7964 122.708 92.4474 122.708C90.0493 122.708 88.0009 121.459 86.3521 118.961C86.0024 118.461 85.303 117.012 84.7034 115.663C82.9548 111.617 82.0555 110.418 80.0071 109.069C78.2084 107.919 75.9102 107.67 74.1616 108.519C71.8634 109.618 71.2638 112.566 72.8626 114.364C73.5121 115.114 74.7112 115.713 75.7104 115.863C77.5589 116.113 79.1577 114.664 79.1577 112.816C79.1577 111.617 78.7081 110.917 77.509 110.368C75.9102 109.668 74.1616 110.467 74.2115 112.016C74.2115 112.666 74.5113 113.065 75.1608 113.365C75.5605 113.565 75.5605 113.565 75.2607 113.515C73.8118 113.215 73.4621 111.417 74.6112 110.268C76.0101 108.869 78.9579 109.468 79.9571 111.417C80.3568 112.216 80.4067 113.815 80.057 114.814C79.2077 117.012 76.8095 118.162 74.3614 117.512C72.7127 117.062 72.0132 116.613 70.0148 114.564C66.5175 110.967 65.1685 110.268 60.1724 109.518L59.2231 109.368L60.2723 108.369Z" fill="#FF007A"/>
<path fill-rule="evenodd" clip-rule="evenodd" d="M33.9939 27.9813C45.6349 42.1204 63.571 64.1034 64.4703 65.3025C65.2197 66.3017 64.9199 67.2509 63.6709 67.9504C62.9714 68.3501 61.5226 68.7498 60.8231 68.7498C60.0237 68.7498 59.0745 68.3501 58.425 67.7006C57.9753 67.2509 56.0268 64.4031 51.6302 57.5584C48.2828 52.3125 45.435 47.9659 45.3851 47.9159C45.1852 47.816 45.1852 47.816 51.2805 58.7076C55.1275 65.5523 56.3765 68.0004 56.3765 68.3001C56.3765 68.9496 56.1767 69.2994 55.3773 70.1987C54.0284 71.6975 53.4288 73.3962 52.9792 76.9434C52.4796 80.8904 51.1306 83.6882 47.2836 88.4345C45.0353 91.2324 44.6856 91.732 44.136 92.8811C43.4366 94.28 43.2367 95.0794 43.1368 96.878C43.0369 98.7765 43.2367 99.9756 43.7863 101.774C44.2859 103.373 44.8355 104.422 46.1844 106.471C47.3335 108.269 48.033 109.618 48.033 110.118C48.033 110.517 48.1329 110.517 49.9315 110.118C54.2282 109.119 57.7755 107.42 59.724 105.321C60.923 104.022 61.2228 103.323 61.2228 101.524C61.2228 100.375 61.1728 100.125 60.8731 99.426C60.3735 98.3269 59.4242 97.4276 57.3758 96.0287C54.6779 94.1801 53.5288 92.6813 53.229 90.6828C52.9792 88.9841 53.2789 87.835 54.7778 84.6874C56.3266 81.44 56.7263 80.091 56.9761 76.7936C57.126 74.6952 57.3758 73.8458 57.9753 73.1963C58.6248 72.4969 59.1744 72.2471 60.7232 72.0472C63.2712 71.6975 64.9199 71.048 66.2189 69.799C67.368 68.7498 67.8677 67.7006 67.9176 66.1518L67.9676 65.0027L67.3181 64.3032C64.9699 61.6053 32.4451 25.833 32.2952 25.833C32.2452 25.833 33.0446 26.7823 33.9939 27.9813ZM49.3319 99.0264C49.8815 98.0771 49.5817 96.8781 48.6824 96.2785C47.8331 95.7289 46.5341 95.9787 46.5341 96.7282C46.5341 96.928 46.634 97.1279 46.9338 97.2278C47.3834 97.4776 47.4334 97.7274 47.0837 98.277C46.7339 98.8265 46.7339 99.3262 47.1836 99.6759C47.8831 100.225 48.8323 99.9257 49.3319 99.0264Z" fill="#FF007A"/>
<path fill-rule="evenodd" clip-rule="evenodd" d="M69.5659 72.7466C68.3668 73.0964 67.2177 74.3954 66.868 75.6944C66.6681 76.4937 66.768 77.9426 67.1178 78.3923C67.6673 79.0917 68.167 79.2916 69.5659 79.2916C72.3138 79.2916 74.6619 78.0925 74.9117 76.6436C75.1615 75.4446 74.1124 73.7958 72.6635 73.0464C71.9141 72.6467 70.3653 72.4968 69.5659 72.7466ZM72.7645 75.2446C73.1642 74.6451 73.0143 73.9956 72.2649 73.5459C70.9159 72.6966 68.8675 73.396 68.8675 74.695C68.8675 75.3445 69.9167 76.044 70.9159 76.044C71.5654 76.044 72.4647 75.6443 72.7645 75.2446Z" fill="#FF007A"/>
<defs>
<linearGradient id="paint0_linear_603_32471" x1="0" y1="0" x2="0" y2="155" gradientUnits="userSpaceOnUse">
<stop stop-color="#FEF3F9"/>
<stop offset="1" stop-color="#FDE5F2"/>
</linearGradient>
</defs>
</svg>
