<svg width="152" height="152" viewBox="0 0 152 152" fill="none" xmlns="http://www.w3.org/2000/svg">
<circle cx="76" cy="76" r="76" fill="#EDF0F4"/>
<path fill-rule="evenodd" clip-rule="evenodd" d="M76.5872 87.8893L47.5578 71.3044C43.1416 77.0195 40.5298 84.0938 40.5298 91.7529C40.5298 110.743 56.5865 126.138 76.3934 126.138C76.4579 126.138 76.5227 126.138 76.5872 126.137V87.8893Z" fill="#47A2F8"/>
<path fill-rule="evenodd" clip-rule="evenodd" d="M76.5854 87.8893L105.615 71.3044C110.031 77.0195 112.643 84.0938 112.643 91.7527C112.643 110.743 96.5863 126.138 76.7793 126.138C76.7146 126.138 76.65 126.138 76.5854 126.137V87.8893Z" fill="#7EC6F9"/>
<path d="M76.5845 26.594L51.48 65.0747L76.5845 50.8262V26.594Z" fill="#47A2F8"/>
<path d="M76.5854 26.594L101.69 65.0747L76.5854 50.8262V26.594Z" fill="#7EC6F9"/>
<path d="M76.5845 79.6143L51.48 65.075L76.5845 50.8265V79.6143Z" fill="#7EC6F9"/>
<path d="M76.5854 79.6143L101.69 65.075L76.5854 50.8265V79.6143Z" fill="#D2ECFD"/>
<path d="M76.5854 87.9519L105.664 71.2802L76.5854 126.142V87.9519Z" fill="#D2ECFD"/>
<path d="M76.5908 87.9519L47.5122 71.2802L76.5908 126.142V87.9519Z" fill="#7EC6F9"/>
</svg>
