<svg width="12.000000" height="8.000000" viewBox="0 0 12 8" fill="none" xmlns="http://www.w3.org/2000/svg" xmlns:xlink="http://www.w3.org/1999/xlink">
	<desc>
			Created with Pixso.
	</desc>
	<defs>
		<linearGradient id="paint_linear_603_25721_0" x1="9.921259" y1="8.000003" x2="1.417327" y2="0.000004" gradientUnits="userSpaceOnUse">
			<stop stop-color="#00A6C2"/>
			<stop offset="1.000000" stop-color="#1544DF"/>
		</linearGradient>
		<linearGradient id="paint_linear_603_25721_1" x1="12.000000" y1="4.000000" x2="-0.000001" y2="3.999999" gradientUnits="userSpaceOnUse">
			<stop stop-color="#FC00FF"/>
			<stop offset="1.000000" stop-color="#00DBDE"/>
		</linearGradient>
	</defs>
	<path id="icon/navigation/arrow_drop_up_24px" d="M11.5044 2.97876L7.17627 7.49048C6.52441 8.16986 5.47168 8.16986 4.81982 7.49048L0.491211 2.97876C-0.561523 1.88135 0.19043 0 1.67773 0L10.3345 0C11.8223 0 12.5576 1.88135 11.5044 2.97876Z" fill="url(#paint_linear_603_25721_0)" fill-opacity="0" fill-rule="nonzero"/>
	<path id="icon/navigation/arrow_drop_up_24px" d="M11.5044 2.97876L7.17627 7.49048C6.52441 8.16986 5.47168 8.16986 4.81982 7.49048L0.491211 2.97876C-0.561523 1.88135 0.19043 0 1.67773 0L10.3345 0C11.8223 0 12.5576 1.88135 11.5044 2.97876Z" fill="url(#paint_linear_603_25721_1)" fill-opacity="1.000000" fill-rule="nonzero"/>
</svg>
