<svg width="50" height="49" viewBox="0 0 50 49" fill="none" xmlns="http://www.w3.org/2000/svg">
<path d="M35.0696 0H15.2644C7.21534 0 0.666992 6.54834 0.666992 14.5974V34.4026C0.666992 42.4517 7.21534 49 15.2644 49H35.0696C43.1186 49 49.667 42.4517 49.667 34.4026V14.5974C49.6669 6.54834 43.1186 0 35.0696 0ZM44.7376 34.4026C44.7376 39.7421 40.409 44.0706 35.0696 44.0706H15.2644C9.92493 44.0706 5.59639 39.7421 5.59639 34.4026V14.5974C5.59639 9.25785 9.92493 4.9294 15.2644 4.9294H35.0696C40.409 4.9294 44.7376 9.25785 44.7376 14.5974V34.4026Z" fill="url(#paint0_linear_603_32148)"/>
<path d="M25.1673 11.8274C18.1793 11.8274 12.4941 17.5126 12.4941 24.5004C12.4941 31.4883 18.1793 37.1736 25.1673 37.1736C32.1553 37.1736 37.8404 31.4884 37.8404 24.5004C37.8404 17.5125 32.1553 11.8274 25.1673 11.8274ZM25.1673 32.2443C20.8905 32.2443 17.4235 28.7773 17.4235 24.5005C17.4235 20.2237 20.8906 16.7568 25.1673 16.7568C29.4441 16.7568 32.911 20.2237 32.911 24.5005C32.911 28.7772 29.444 32.2443 25.1673 32.2443Z" fill="url(#paint1_linear_603_32148)"/>
<path d="M37.8649 14.9595C39.542 14.9595 40.9016 13.5999 40.9016 11.9227C40.9016 10.2456 39.542 8.88599 37.8649 8.88599C36.1877 8.88599 34.8281 10.2456 34.8281 11.9227C34.8281 13.5999 36.1877 14.9595 37.8649 14.9595Z" fill="url(#paint2_linear_603_32148)"/>
<defs>
<linearGradient id="paint0_linear_603_32148" x1="0.666992" y1="96.3186" x2="45.512" y2="91.7711" gradientUnits="userSpaceOnUse">
<stop stop-color="#816FD8"/>
<stop offset="0.5" stop-color="#F20074"/>
<stop offset="1" stop-color="#2063F8"/>
</linearGradient>
<linearGradient id="paint1_linear_603_32148" x1="12.4941" y1="61.6501" x2="35.6911" y2="59.2977" gradientUnits="userSpaceOnUse">
<stop stop-color="#816FD8"/>
<stop offset="0.5" stop-color="#F20074"/>
<stop offset="1" stop-color="#2063F8"/>
</linearGradient>
<linearGradient id="paint2_linear_603_32148" x1="34.8281" y1="20.8246" x2="40.3866" y2="20.2609" gradientUnits="userSpaceOnUse">
<stop stop-color="#816FD8"/>
<stop offset="0.5" stop-color="#F20074"/>
<stop offset="1" stop-color="#2063F8"/>
</linearGradient>
</defs>
</svg>
