<svg width="47.000000" height="47.000000" viewBox="0 0 47 47" fill="none" xmlns="http://www.w3.org/2000/svg" xmlns:xlink="http://www.w3.org/1999/xlink">
	<desc>
			Created with Pixso.
	</desc>
	<defs>
		<linearGradient id="paint_linear_603_9745_0" x1="16.000000" y1="23.500000" x2="31.000002" y2="23.500000" gradientUnits="userSpaceOnUse">
			<stop stop-color="#FC00FF"/>
			<stop offset="1.000000" stop-color="#00DBDE"/>
		</linearGradient>
	</defs>
	<rect id="Rectangle 4329" rx="10.000000" width="47.000000" height="47.000000" fill="#252231" fill-opacity="1.000000"/>
	<path id="Vector" d="M26.0376 22.4199L20.9624 22.4199C20.1846 22.4199 19.439 22.0913 18.8892 21.5061C18.3389 20.9211 18.0303 20.1274 18.0303 19.3C18.0303 18.4727 18.3389 17.679 18.8892 17.0938C19.439 16.5088 20.1846 16.1799 20.9624 16.1799L29.0825 16.1799L29.0825 14.02L24.769 14.02L24.769 10L22.7388 10L22.7388 14.02L20.9624 14.02C19.6465 14.02 18.3843 14.5764 17.4536 15.5664C16.5229 16.5566 16 17.8997 16 19.3C16 20.7004 16.5229 22.0435 17.4536 23.0334C18.3843 24.0237 19.6465 24.5801 20.9624 24.5801L26.0376 24.5801C26.8149 24.5808 27.5605 24.9099 28.1099 25.4949C28.6597 26.0798 28.9692 26.8728 28.9697 27.7L28.9697 27.9399C28.9692 28.7671 28.6597 29.5603 28.1099 30.1453C27.5605 30.73 26.8149 31.0591 26.0376 31.0601L17.4473 31.0601L17.4473 33.22L22.7388 33.22L22.7388 37L24.769 37L24.769 33.22L26.0376 33.22C27.353 33.2185 28.6147 32.6616 29.5449 31.6719C30.4751 30.6819 30.9985 29.3398 31 27.9399L31 27.7C30.9985 26.3 30.4751 24.958 29.5449 23.9683C28.6147 22.9783 27.353 22.4216 26.0376 22.4199Z" fill="#000000" fill-opacity="1.000000" fill-rule="nonzero"/>
	<path id="Vector" d="M26.0376 22.4199L20.9624 22.4199C20.1846 22.4199 19.439 22.0913 18.8892 21.5061C18.3389 20.9211 18.0303 20.1274 18.0303 19.3C18.0303 18.4727 18.3389 17.679 18.8892 17.0938C19.439 16.5088 20.1846 16.1799 20.9624 16.1799L29.0825 16.1799L29.0825 14.02L24.769 14.02L24.769 10L22.7388 10L22.7388 14.02L20.9624 14.02C19.6465 14.02 18.3843 14.5764 17.4536 15.5664C16.5229 16.5566 16 17.8997 16 19.3C16 20.7004 16.5229 22.0435 17.4536 23.0334C18.3843 24.0237 19.6465 24.5801 20.9624 24.5801L26.0376 24.5801C26.8149 24.5808 27.5605 24.9099 28.1099 25.4949C28.6597 26.0798 28.9692 26.8728 28.9697 27.7L28.9697 27.9399C28.9692 28.7671 28.6597 29.5603 28.1099 30.1453C27.5605 30.73 26.8149 31.0591 26.0376 31.0601L17.4473 31.0601L17.4473 33.22L22.7388 33.22L22.7388 37L24.769 37L24.769 33.22L26.0376 33.22C27.353 33.2185 28.6147 32.6616 29.5449 31.6719C30.4751 30.6819 30.9985 29.3398 31 27.9399L31 27.7C30.9985 26.3 30.4751 24.958 29.5449 23.9683C28.6147 22.9783 27.353 22.4216 26.0376 22.4199Z" fill="url(#paint_linear_603_9745_0)" fill-opacity="1.000000" fill-rule="nonzero"/>
</svg>
