<svg width="190" height="190" viewBox="0 0 190 190" fill="none" xmlns="http://www.w3.org/2000/svg">
<g opacity="0.05">
<path d="M153.717 52.8747C161.871 61.5356 166.249 71.2493 166.249 86.9956C166.249 114.704 146.806 139.538 118.511 151.817L111.442 140.908C137.844 126.626 143.006 108.093 145.072 96.4085C140.821 98.6093 135.255 99.3772 129.793 98.8706C115.511 97.5485 104.253 85.8239 104.253 71.2493C104.253 63.9006 107.173 56.8529 112.369 51.6566C117.565 46.4603 124.613 43.541 131.962 43.541C140.456 43.541 148.587 47.4202 153.717 52.8747ZM74.5501 52.8747C82.7043 61.5356 87.0822 71.2493 87.0822 86.9956C87.0822 114.704 67.6389 139.538 39.3447 151.817L32.2751 140.908C58.6772 126.626 63.8389 108.093 65.8972 96.4085C61.646 98.6093 56.0806 99.3772 50.626 98.8706C36.3443 97.5485 25.0947 85.8239 25.0947 71.2493C25.0947 63.9006 28.014 56.8529 33.2103 51.6566C38.4066 46.4603 45.4544 43.541 52.8031 43.541C61.2976 43.541 69.4281 47.4202 74.5581 52.8747H74.5501Z" fill="white"/>
</g>
</svg>
