<svg width="47.000000" height="47.000000" viewBox="0 0 47 47" fill="none" xmlns="http://www.w3.org/2000/svg" xmlns:xlink="http://www.w3.org/1999/xlink">
	<desc>
			Created with Pixso.
	</desc>
	<defs>
		<linearGradient id="paint_linear_603_9738_0" x1="14.209473" y1="23.499945" x2="32.790871" y2="23.499945" gradientUnits="userSpaceOnUse">
			<stop stop-color="#FC00FF"/>
			<stop offset="1.000000" stop-color="#00DBDE"/>
		</linearGradient>
	</defs>
	<rect id="Rectangle 4329" rx="10.000000" width="47.000000" height="47.000000" fill="#252231" fill-opacity="1.000000"/>
	<path id="Vector" d="M30.4683 19.3101L29.3066 19.3101L29.3066 16.9158C29.3066 13.6118 26.7056 10.9302 23.5 10.9302C20.2949 10.9302 17.6934 13.6118 17.6934 16.9158L17.6934 19.3101L16.5322 19.3101C15.2549 19.3101 14.2095 20.3875 14.2095 21.7043L14.2095 33.6755C14.2095 34.9922 15.2549 36.0698 16.5322 36.0698L30.4683 36.0698C31.7456 36.0698 32.791 34.9922 32.791 33.6755L32.791 21.7043C32.791 20.3875 31.7456 19.3101 30.4683 19.3101ZM23.5 30.084C22.2227 30.084 21.1777 29.0066 21.1777 27.6899C21.1777 26.373 22.2227 25.2957 23.5 25.2957C24.7778 25.2957 25.8228 26.373 25.8228 27.6899C25.8228 29.0066 24.7778 30.084 23.5 30.084ZM20.0161 19.3101L20.0161 16.9158C20.0161 14.9285 21.5723 13.3245 23.5 13.3245C25.4282 13.3245 26.9844 14.9285 26.9844 16.9158L26.9844 19.3101L20.0161 19.3101Z" fill="#FFFFFF" fill-opacity="0" fill-rule="nonzero"/>
	<path id="Vector" d="M30.4683 19.3101L29.3066 19.3101L29.3066 16.9158C29.3066 13.6118 26.7056 10.9302 23.5 10.9302C20.2949 10.9302 17.6934 13.6118 17.6934 16.9158L17.6934 19.3101L16.5322 19.3101C15.2549 19.3101 14.2095 20.3875 14.2095 21.7043L14.2095 33.6755C14.2095 34.9922 15.2549 36.0698 16.5322 36.0698L30.4683 36.0698C31.7456 36.0698 32.791 34.9922 32.791 33.6755L32.791 21.7043C32.791 20.3875 31.7456 19.3101 30.4683 19.3101ZM23.5 30.084C22.2227 30.084 21.1777 29.0066 21.1777 27.6899C21.1777 26.373 22.2227 25.2957 23.5 25.2957C24.7778 25.2957 25.8228 26.373 25.8228 27.6899C25.8228 29.0066 24.7778 30.084 23.5 30.084ZM20.0161 19.3101L20.0161 16.9158C20.0161 14.9285 21.5723 13.3245 23.5 13.3245C25.4282 13.3245 26.9844 14.9285 26.9844 16.9158L26.9844 19.3101L20.0161 19.3101Z" fill="url(#paint_linear_603_9738_0)" fill-opacity="1.000000" fill-rule="nonzero"/>
</svg>
