<svg width="50" height="49" viewBox="0 0 50 49" fill="none" xmlns="http://www.w3.org/2000/svg">
<path d="M24.8332 48.9997C38.364 48.9997 49.3329 38.0308 49.3329 24.5C49.3329 10.9691 38.364 0.000244141 24.8332 0.000244141C11.3024 0.000244141 0.333496 10.9691 0.333496 24.5C0.333496 38.0308 11.3024 48.9997 24.8332 48.9997Z" fill="url(#paint0_linear_603_32153)"/>
<path d="M24.8332 48.9997C38.364 48.9997 49.3329 38.0308 49.3329 24.5C49.3329 10.9691 38.364 0.000244141 24.8332 0.000244141C11.3024 0.000244141 0.333496 10.9691 0.333496 24.5C0.333496 38.0308 11.3024 48.9997 24.8332 48.9997Z" fill="url(#paint1_linear_603_32153)"/>
<defs>
<linearGradient id="paint0_linear_603_32153" x1="49.3329" y1="24.5" x2="0.333496" y2="24.5" gradientUnits="userSpaceOnUse">
<stop stop-color="#64ADF3"/>
<stop offset="0.51" stop-color="#913CE5"/>
<stop offset="1" stop-color="#F486DA"/>
</linearGradient>
<linearGradient id="paint1_linear_603_32153" x1="0.333496" y1="96.3178" x2="45.1779" y2="91.7702" gradientUnits="userSpaceOnUse">
<stop stop-color="#816FD8"/>
<stop offset="0.5" stop-color="#F20074"/>
<stop offset="1" stop-color="#2063F8"/>
</linearGradient>
</defs>
</svg>
