<svg width="49" height="49" viewBox="0 0 49 49" fill="none" xmlns="http://www.w3.org/2000/svg">
<path d="M24.499 49C38.03 49 48.999 38.031 48.999 24.5C48.999 10.969 38.03 0 24.499 0C10.968 0 -0.000976562 10.969 -0.000976562 24.5C-0.000976562 38.031 10.968 49 24.499 49Z" fill="url(#paint0_linear_603_32143)"/>
<path fill-rule="evenodd" clip-rule="evenodd" d="M23.5742 35.2456H25.4971C25.4971 35.2456 26.078 35.1818 26.3745 34.8622C26.6475 34.5687 26.6388 34.0175 26.6388 34.0175C26.6388 34.0175 26.6012 31.4373 27.7987 31.0573C28.9792 30.683 30.4951 33.5511 32.1019 34.6538C33.3169 35.4884 34.2402 35.3054 34.2402 35.3054L38.5363 35.2456C38.5363 35.2456 40.7838 35.1072 39.7181 33.3401C39.6308 33.1956 39.0975 32.033 36.5238 29.644C33.8301 27.1437 34.1908 27.5481 37.4358 23.2231C39.412 20.5892 40.202 18.9811 39.9553 18.2924C39.7199 17.6364 38.2664 17.8098 38.2664 17.8098L33.4291 17.8399C33.4291 17.8399 33.0706 17.791 32.8046 17.95C32.5447 18.1059 32.3775 18.4693 32.3775 18.4693C32.3775 18.4693 31.6119 20.5075 30.5908 22.2409C28.4368 25.8986 27.5756 26.0916 27.2236 25.8645C26.4047 25.3352 26.6091 23.7381 26.6091 22.6034C26.6091 19.0589 27.1467 17.581 25.5622 17.1984C25.0364 17.0713 24.6494 16.9874 23.3047 16.9739C21.5787 16.956 20.1179 16.9791 19.2907 17.3844C18.7404 17.6539 18.3159 18.2544 18.5744 18.2889C18.8941 18.3317 19.6182 18.4841 20.0021 19.0069C20.4978 19.6812 20.4804 21.1958 20.4804 21.1958C20.4804 21.1958 20.7651 25.3684 19.8152 25.8868C19.1632 26.2423 18.2687 25.5164 16.3484 22.1981C15.3644 20.4984 14.6215 18.6195 14.6215 18.6195C14.6215 18.6195 14.4783 18.2684 14.2228 18.0806C13.9127 17.853 13.4795 17.7805 13.4795 17.7805L8.88284 17.8107C8.88284 17.8107 8.1928 17.8299 7.93949 18.1299C7.71414 18.3968 7.92159 18.9488 7.92159 18.9488C7.92159 18.9488 11.5203 27.3682 15.595 31.6111C19.3313 35.5011 23.5742 35.2456 23.5742 35.2456Z" fill="white"/>
<defs>
<linearGradient id="paint0_linear_603_32143" x1="-0.000976618" y1="96.3186" x2="54.7776" y2="95.2566" gradientUnits="userSpaceOnUse">
<stop stop-color="#816FD8"/>
<stop offset="0.5" stop-color="#ED0376"/>
<stop offset="1" stop-color="#2063F8"/>
</linearGradient>
</defs>
</svg>
