<svg width="23" height="23" viewBox="0 0 23 23" fill="none" xmlns="http://www.w3.org/2000/svg">
<path d="M19.0771 3.92792C16.9951 1.84492 14.1551 0.793918 11.1731 1.03392C7.16414 1.35592 3.65014 4.14392 2.47414 7.98992C1.63414 10.7379 1.98714 13.6069 3.35514 15.9769L2.05914 20.2799C1.93514 20.6929 2.31214 21.0819 2.72914 20.9709L7.23314 19.7639C8.69214 20.5599 10.3341 20.9789 12.0061 20.9799H12.0101C16.2051 20.9799 20.0811 18.4139 21.4221 14.4389C22.7281 10.5629 21.7621 6.61592 19.0771 3.92792ZM16.8981 14.5539C16.6901 15.1369 15.6711 15.6989 15.2131 15.7399C14.7551 15.7819 14.3261 15.9469 12.2181 15.1159C9.68114 14.1159 8.07914 11.5149 7.95514 11.3489C7.83014 11.1819 6.93614 9.99592 6.93614 8.76792C6.93614 7.53992 7.58114 6.93592 7.81014 6.68692C8.03914 6.43692 8.30914 6.37492 8.47614 6.37492C8.64214 6.37492 8.80914 6.37492 8.95414 6.38092C9.13214 6.38792 9.32914 6.39692 9.51614 6.81192C9.73814 7.30592 10.2231 8.53992 10.2851 8.66492C10.3471 8.78992 10.3891 8.93592 10.3061 9.10192C10.2231 9.26792 10.1811 9.37192 10.0571 9.51792C9.93214 9.66392 9.79514 9.84292 9.68314 9.95492C9.55814 10.0789 9.42814 10.2149 9.57314 10.4639C9.71914 10.7139 10.2191 11.5309 10.9611 12.1919C11.9151 13.0419 12.7181 13.3049 12.9681 13.4309C13.2181 13.5559 13.3631 13.5349 13.5091 13.3679C13.6551 13.2019 14.1331 12.6399 14.2991 12.3899C14.4651 12.1399 14.6321 12.1819 14.8611 12.2649C15.0901 12.3479 16.3171 12.9519 16.5661 13.0769C16.8161 13.2019 16.9821 13.2639 17.0441 13.3679C17.1061 13.4709 17.1061 13.9709 16.8981 14.5539Z" fill="white"/>
</svg>
