<svg width="196" height="45" viewBox="0 0 196 45" fill="none" xmlns="http://www.w3.org/2000/svg">
<path d="M1.40371 33V13.68H7.04371V20.88H13.7037V13.68H19.3437V33H13.7037V25.8H7.04371V33H1.40371ZM31.058 33.3C29.258 33.3 27.668 33.01 26.288 32.43C24.928 31.83 23.858 30.96 23.078 29.82C22.298 28.66 21.908 27.24 21.908 25.56V13.68H27.548V24.96C27.548 27.32 28.718 28.5 31.058 28.5C32.178 28.5 33.038 28.21 33.638 27.63C34.238 27.05 34.538 26.16 34.538 24.96V13.68H40.178V25.56C40.178 27.24 39.788 28.66 39.008 29.82C38.248 30.96 37.178 31.83 35.798 32.43C34.438 33.01 32.858 33.3 31.058 33.3ZM42.7416 33V13.68H53.3616C55.3216 13.68 56.8116 14.14 57.8316 15.06C58.8516 15.98 59.3616 17.3 59.3616 19.02C59.3616 20.02 59.1716 20.86 58.7916 21.54C58.4316 22.22 57.9516 22.76 57.3516 23.16C58.1716 23.48 58.8216 23.95 59.3016 24.57C59.8016 25.17 60.0516 26.07 60.0516 27.27C60.0516 29.09 59.4916 30.5 58.3716 31.5C57.2516 32.5 55.6616 33 53.6016 33H42.7416ZM48.1716 21.39H51.8316C53.2116 21.39 53.9016 20.77 53.9016 19.53C53.9016 18.91 53.7316 18.44 53.3916 18.12C53.0716 17.8 52.5016 17.64 51.6816 17.64H48.1716V21.39ZM48.1716 29.07H52.0716C52.8316 29.07 53.3916 28.91 53.7516 28.59C54.1116 28.27 54.2916 27.74 54.2916 27C54.2916 26.38 54.1116 25.91 53.7516 25.59C53.3916 25.27 52.7916 25.11 51.9516 25.11H48.1716V29.07ZM71.1654 33.3C69.3654 33.3 67.7754 33.01 66.3954 32.43C65.0354 31.83 63.9654 30.96 63.1854 29.82C62.4054 28.66 62.0154 27.24 62.0154 25.56V13.68H67.6554V24.96C67.6554 27.32 68.8254 28.5 71.1654 28.5C72.2854 28.5 73.1454 28.21 73.7454 27.63C74.3454 27.05 74.6454 26.16 74.6454 24.96V13.68H80.2854V25.56C80.2854 27.24 79.8954 28.66 79.1154 29.82C78.3554 30.96 77.2854 31.83 75.9054 32.43C74.5454 33.01 72.9654 33.3 71.1654 33.3ZM89.179 33.3C87.879 33.3 86.649 33.2 85.489 33C84.329 32.78 83.339 32.48 82.519 32.1V27.45C83.419 27.87 84.419 28.21 85.519 28.47C86.619 28.73 87.649 28.86 88.609 28.86C89.609 28.86 90.359 28.78 90.859 28.62C91.379 28.44 91.639 28.05 91.639 27.45C91.639 27.03 91.489 26.7 91.189 26.46C90.909 26.22 90.459 26 89.839 25.8C89.239 25.6 88.449 25.35 87.469 25.05C86.169 24.63 85.139 24.17 84.379 23.67C83.619 23.17 83.069 22.56 82.729 21.84C82.409 21.12 82.249 20.24 82.249 19.2C82.249 17.3 82.919 15.86 84.259 14.88C85.619 13.88 87.629 13.38 90.289 13.38C91.349 13.38 92.439 13.47 93.559 13.65C94.699 13.83 95.619 14.03 96.319 14.25V18.93C95.379 18.55 94.479 18.28 93.619 18.12C92.759 17.96 91.949 17.88 91.189 17.88C90.309 17.88 89.559 17.95 88.939 18.09C88.319 18.23 88.009 18.59 88.009 19.17C88.009 19.67 88.269 20.04 88.789 20.28C89.329 20.5 90.279 20.79 91.639 21.15C93.219 21.57 94.419 22.08 95.239 22.68C96.079 23.28 96.649 23.98 96.949 24.78C97.249 25.56 97.399 26.45 97.399 27.45C97.399 29.21 96.719 30.63 95.359 31.71C93.999 32.77 91.939 33.3 89.179 33.3ZM120.702 33.54L118.752 31.56C118.072 32.12 117.202 32.55 116.142 32.85C115.102 33.15 113.982 33.3 112.782 33.3C110.422 33.3 108.542 32.81 107.142 31.83C105.742 30.83 105.042 29.51 105.042 27.87C105.042 26.57 105.382 25.46 106.062 24.54C106.742 23.62 107.702 22.82 108.942 22.14C108.362 21.54 107.892 20.95 107.532 20.37C107.192 19.77 107.022 19.07 107.022 18.27C107.022 16.81 107.562 15.63 108.642 14.73C109.722 13.83 111.172 13.38 112.992 13.38C114.812 13.38 116.272 13.82 117.372 14.7C118.472 15.58 119.022 16.77 119.022 18.27C119.022 19.23 118.812 20.06 118.392 20.76C117.972 21.44 117.352 22.11 116.532 22.77L119.532 25.83C119.752 25.45 119.862 24.98 119.862 24.42V23.91H124.032V24.6C124.032 25.4 123.902 26.18 123.642 26.94C123.402 27.7 123.082 28.34 122.682 28.86L124.182 30.39L120.702 33.54ZM112.962 20.61C113.482 20.29 113.872 19.99 114.132 19.71C114.392 19.41 114.522 19.02 114.522 18.54C114.522 18.1 114.402 17.75 114.162 17.49C113.922 17.21 113.552 17.07 113.052 17.07C112.512 17.07 112.122 17.22 111.882 17.52C111.642 17.8 111.522 18.14 111.522 18.54C111.522 18.98 111.642 19.35 111.882 19.65C112.142 19.95 112.502 20.27 112.962 20.61ZM112.782 29.49C113.902 29.49 114.752 29.18 115.332 28.56L112.332 25.5C111.712 25.76 111.242 26.06 110.922 26.4C110.622 26.74 110.472 27.18 110.472 27.72C110.472 28.28 110.682 28.72 111.102 29.04C111.522 29.34 112.082 29.49 112.782 29.49ZM142.296 33.3C138.796 33.3 136.126 32.44 134.286 30.72C132.446 29 131.526 26.57 131.526 23.43C131.526 20.19 132.426 17.71 134.226 15.99C136.026 14.25 138.706 13.38 142.266 13.38C143.466 13.38 144.536 13.47 145.476 13.65C146.416 13.83 147.316 14.08 148.176 14.4V19.32C146.456 18.56 144.616 18.18 142.656 18.18C140.836 18.18 139.486 18.6 138.606 19.44C137.726 20.26 137.286 21.59 137.286 23.43C137.286 25.23 137.746 26.53 138.666 27.33C139.606 28.11 140.956 28.5 142.716 28.5C143.676 28.5 144.606 28.41 145.506 28.23C146.426 28.05 147.336 27.77 148.236 27.39V32.34C147.376 32.64 146.466 32.87 145.506 33.03C144.566 33.21 143.496 33.3 142.296 33.3ZM159.326 33.3C156.126 33.3 153.676 32.52 151.976 30.96C150.296 29.4 149.456 26.88 149.456 23.4C149.456 21 149.836 19.07 150.596 17.61C151.356 16.13 152.466 15.06 153.926 14.4C155.406 13.72 157.206 13.38 159.326 13.38C161.446 13.38 163.236 13.72 164.696 14.4C166.176 15.06 167.296 16.13 168.056 17.61C168.816 19.07 169.196 21 169.196 23.4C169.196 26.88 168.346 29.4 166.646 30.96C164.946 32.52 162.506 33.3 159.326 33.3ZM159.326 28.5C160.766 28.5 161.806 28.1 162.446 27.3C163.106 26.48 163.436 25.18 163.436 23.4C163.436 21.5 163.106 20.16 162.446 19.38C161.806 18.58 160.766 18.18 159.326 18.18C157.886 18.18 156.836 18.58 156.176 19.38C155.536 20.16 155.216 21.5 155.216 23.4C155.216 25.18 155.536 26.48 156.176 27.3C156.836 28.1 157.886 28.5 159.326 28.5Z" fill="white"/>
</svg>
